<svg id="Layer_1" data-name="Layer 1" xmlns="http://www.w3.org/2000/svg" viewBox="0 0 881.71918 1000"><defs><style>.cls-1{fill:#afc3ce;}.cls-2{fill:#a7bbc1;}.cls-3{fill:#b78e62;}.cls-4{fill:#c3d3dd;}.cls-5{fill:#414b3b;}.cls-6{fill:#cd8c2a;}</style></defs><title>Logo PIKA</title><path class="cls-1" d="M615.3917,570.92881c-11.83774-9.07927-19.98626-21.56133-29.231-32.36616a6.02464,6.02464,0,0,1,.56193-8.39619,25.88324,25.88324,0,0,0,1.92214-1.94039c.59075-.663,1.11692-1.32224,1.58528-1.96413a6.03311,6.03311,0,0,0,.12366-7.005,15.733,15.733,0,0,0-3.47439-3.60971,5.91261,5.91261,0,0,1-2.31988-4.73739V497.29248a6.00071,6.00071,0,0,1,4.15849-5.71094l10.799-3.48356a6.0007,6.0007,0,0,0,4.15848-5.71094V407.85023a5.95789,5.95789,0,0,0-3.32009-5.37058C576.54276,390.90452,498.83293,391.947,498.83293,391.947s-77.70981-1.04246-101.52247,10.53268a5.95787,5.95787,0,0,0-3.3201,5.37059V482.387a6.00073,6.00073,0,0,0,4.15849,5.711l10.79911,3.48356a6.00073,6.00073,0,0,1,4.1585,5.71095v13.61734a5.91262,5.91262,0,0,1-2.31984,4.73737,15.73322,15.73322,0,0,0-3.47438,3.60971,6.03311,6.03311,0,0,0,.12366,7.005c.46836.64189.99453,1.30111,1.58527,1.96413a25.88312,25.88312,0,0,0,1.92215,1.94038,6.02464,6.02464,0,0,1,.56192,8.3962c-9.2448,10.80483-17.39342,23.28689-29.231,32.36616-25.6951,19.70794-77.019,80.387-97.14886,124.557a6.0019,6.0019,0,0,0,5.46374,8.49035H707.07674a6.0019,6.0019,0,0,0,5.46374-8.49033C692.41089,651.31585,641.08681,590.63675,615.3917,570.92881Z" transform="translate(-59.14041)"/><path class="cls-2" d="M707.07685,707.82268H290.589a9.84887,9.84887,0,0,1-8.96419-13.932c20.57136-45.13763,73.00122-106.60342,98.30861-126.01407,8.2024-6.29116,14.746-14.53488,21.074-22.50739,2.45066-3.087,4.98395-6.27914,7.57509-9.30715a2.18338,2.18338,0,0,0-.22538-3.04792,29.85375,29.85375,0,0,1-2.20724-2.229c-.64309-.722-1.25538-1.48076-1.82109-2.25608a9.89529,9.89529,0,0,1-.1773-11.46405,19.56678,19.56678,0,0,1,4.32283-4.49149,2.07319,2.07319,0,0,0,.78583-1.66369v-13.6172a2.14912,2.14912,0,0,0-1.49353-2.05061l-10.7988-3.48365A9.8181,9.8181,0,0,1,390.144,482.387V407.85018a9.85588,9.85588,0,0,1,5.48505-8.83009c24.23607-11.78072,99.31757-10.97047,103.2039-10.92014,3.88634-.05146,78.96934-.86058,103.20391,10.92014a9.8558,9.8558,0,0,1,5.48505,8.83009V482.387a9.81892,9.81892,0,0,1-6.82382,9.37176l-10.7988,3.48327a2.14912,2.14912,0,0,0-1.49353,2.05061v13.6172a2.0735,2.0735,0,0,0,.78508,1.66332,19.53938,19.53938,0,0,1,4.32358,4.49111,9.89644,9.89644,0,0,1-.1773,11.4648c-.56571.77532-1.178,1.5341-1.82034,2.25533a29.93646,29.93646,0,0,1-2.20724,2.2294,2.18322,2.18322,0,0,0-.22613,3.04829c2.59114,3.028,5.12518,6.22054,7.57509,9.30752,6.328,7.97214,12.87156,16.21586,21.074,22.507h0c25.30814,19.4114,77.73875,80.87757,98.30861,126.01369a9.849,9.849,0,0,1-8.96419,13.93236ZM494.21259,395.77233c-16.88486,0-75.74111.69794-95.22087,10.167a2.11705,2.11705,0,0,0-1.15471,1.91087V482.387a2.14682,2.14682,0,0,0,1.49278,2.04985l10.7988,3.48365a9.82041,9.82041,0,0,1,6.82457,9.37214v13.6172a9.8,9.8,0,0,1-3.85479,7.81174,11.98017,11.98017,0,0,0-1.52358,1.36581,11.8525,11.8525,0,0,0-1.10212,1.36206,2.2,2.2,0,0,0,.07062,2.54569c.41921.57435.87374,1.13705,1.35,1.67233a22.11563,22.11563,0,0,0,1.63628,1.65168,9.83912,9.83912,0,0,1,.89777,13.74417c-2.498,2.92057-4.87652,5.91665-7.39479,9.08852-6.618,8.338-13.46206,16.96-22.41724,23.82889C359.921,592.92108,308.7345,652.95645,288.62517,697.081a2.15585,2.15585,0,0,0,1.96383,3.04867H707.07685a2.156,2.156,0,0,0,1.96383-3.049C688.9321,652.9572,637.7456,592.92183,613.0505,573.98073c-8.95593-6.86852-15.79928-15.4905-22.41725-23.82813-2.51826-3.17226-4.896-6.16871-7.39478-9.08928a9.839,9.839,0,0,1,.89852-13.74455,22.19424,22.19424,0,0,0,1.63628-1.652c.47555-.53453.93007-1.09723,1.34928-1.67158a2.20109,2.20109,0,0,0,.07062-2.54644,11.86636,11.86636,0,0,0-2.62645-2.7275,9.8002,9.8002,0,0,1-3.854-7.81136v-13.6172a9.82041,9.82041,0,0,1,6.82457-9.37214l10.7988-3.48328a2.14762,2.14762,0,0,0,1.49278-2.05022V407.85018a2.11952,2.11952,0,0,0-1.15546-1.91124c-22.72827-11.0486-99.02608-10.15759-99.78862-10.146l-.05184.00075-.05183-.00075C498.67215,395.79149,497.02311,395.77233,494.21259,395.77233Z" transform="translate(-59.14041)"/><path class="cls-3" d="M524.24558,648.65721a10.75322,10.75322,0,0,1-13.15535-7.62887c-4.09275-37.75243,5.9929-90.55658-6.83877-138.44247-12.47484-46.55448-44.9302-78.14232-59.80677-112.20494a10.984,10.984,0,0,1,1.09-8.15765,10.75323,10.75323,0,0,1,19.69435,2.63123c14.47763,35.87912,48.06652,66.52691,60.38416,112.91485,12.24519,46.1151,1.03163,99.58184,6.26137,137.73256C532.322,641.8313,528.983,647.39755,524.24558,648.65721Z" transform="translate(-59.14041)"/><rect class="cls-1" x="243.13759" y="664.63866" width="391.98793" height="53.78147"/><path class="cls-4" d="M589.03058,477.6002,561.135,483.21954a155.52416,155.52416,0,0,0-.40137-75.258q14.14849,2.70937,28.297,5.41855a184.43994,184.43994,0,0,1,0,64.22015Z" transform="translate(-59.14041)"/><polygon class="cls-5" points="835.742 643.558 743.787 643.558 743.729 643.558 680.165 643.558 483.892 643.558 483.892 585.241 415.283 632.83 400.396 642.957 345.332 680.419 400.3 717.82 415.279 728.012 485.883 775.606 485.883 718.42 789.737 718.42 881.719 718.42 835.742 643.558"/><polygon class="cls-5" points="440.431 150.424 486.838 74.862 440.861 0 310.721 211.896 199.502 392.986 270.156 427.671 440.431 150.424"/><polygon class="cls-5" points="189.19 560.102 240.33 589.53 233.672 508.601 232.154 490.147 227.013 427.671 163.211 452.677 147.315 458.906 67.617 490.141 121.247 521.003 0 718.42 94.041 718.42 137.934 643.558 189.19 560.102"/><polygon class="cls-5" points="733.861 626.714 825.815 626.714 661.59 359.318 590.65 393.535 733.861 626.714"/><polygon class="cls-5" points="110.122 718.42 330.592 718.42 330.592 643.558 154.436 643.558 110.122 718.42"/><polygon class="cls-5" points="511.309 264.43 460.693 291.074 539.04 325.196 552.13 330.897 617.387 359.318 624.804 299.503 627.385 278.693 637.383 198.067 580.799 227.852 495.953 89.704 449.4 163.629 511.309 264.43"/><path class="cls-6" d="M390.82872,263.08624c14.0645,25.49862,31.13959,47.57319,37.49342,55.48554a1.08613,1.08613,0,0,0,1.89262-.38378c.34805-1.21689.73274-2.53893,1.1538-3.95583,1.40859-4.74013,3.2247-10.5397,5.44312-17.01739,10.81813-31.58948,31.19258-79.25443,60.41687-98.32093l.49416-1.105c-.61725-3.97837-4.75633-7.62608-6.19228-8.61151l-1.18764-.81414a1.09017,1.09017,0,0,1-.46975-.80539l-.12394-1.435c-1.27643-14.7987-8.69888-27.71215-13.45817-30.455-7.919-4.56522-10.24481-19.07687-10.80749-23.92369a1.0191,1.0191,0,0,0-.06959-.28215c-1.68076-4.0789-15.52741-16.14417-19.26822-16.7126-2.40951-.36837-8.85468,4.70348-12.70985,7.73207-2.27344,1.78513-4.62379,3.63135-6.84613,5.1266-3.05159,2.05388-6.68956,3.01868-10.541,4.04038-6.92131,1.83676-13.45925,3.57086-17.42246,11.34448-7.15263,14.02709-20.01355,29.06827-21.194,30.43613-4.84336,6.19254-7.17574,13.64767-7.6928,21.79387a62.38851,62.38851,0,0,0,.1367,9.2634C371.52171,223.70122,381.04532,245.349,390.82872,263.08624Z" transform="translate(-59.14041)"/><path class="cls-6" d="M454.57507,389.18244a116.29736,116.29736,0,0,0-6.30683-23.14809,86.85869,86.85869,0,0,0-12.6349-22.73258c-.02937.01-.05877.01683-.08817.02651-.02985-.08412-.06057-.1706-.08967-.25306-.89265-1.10844-1.80433-2.1549-2.72956-3.14981a47.18062,47.18062,0,0,0-5.74278-5.27509c-.14176-.10913-.2828-.22218-.425-.32863-.061-.04571-.12269-.08771-.18377-.1328a29.71476,29.71476,0,0,0-11.70611-5.46914c-1.485-.21951-3.11779-.44547-4.86612-.67311-16.10182-2.09614-42.62112-4.33644-65.944-3.10686-19.9067,1.04955-37.47963,4.62663-44.24045,12.9832-3.20954,3.96653-3.62549,8.95756-1.27214,15.259,7.18625,19.24176,12.64237,31.81106,16.62639,40.98892,6.61993,15.24929,9.64135,22.2094,10.20949,35.76354.09017,2.14781.60509,3.56262,1.53022,4.20354,3.47261,2.40621,14.27808-1.14425,22.16663-3.73583,6.51552-2.14074,12.73043-4.18286,18.01762-4.6483a22.82623,22.82623,0,0,1,3.11025-.07518c4.18273.20416,10.25377,1.76789,17.94,3.748,20.36123,5.24472,51.1308,13.17041,62.35294-2.003,3.27669-4.43092,5.08991-11.35918,5.48327-19.61833A90.65216,90.65216,0,0,0,454.57507,389.18244Z" transform="translate(-59.14041)"/><path class="cls-6" d="M343.68891,316.64639a1.077,1.077,0,0,0,.123.00068q9.16916-.47442,19.82794-.28386a463.64477,463.64477,0,0,1,52.34243,4.19105l.19345.03323q.4242.0837.84681.17968a1.08678,1.08678,0,0,0,1.091-1.73042c-15.87409-20.3334-55.18712-74.83806-56.72215-117.68823a1.08519,1.08519,0,0,0-.69715-.97978c-.959-.36439-1.92452-.71569-2.90177-1.0435-35.373-11.86761-56.08829-10.03262-67.23545-6.40343-9.95348,3.23948-14.03419,8.30354-15.10214,9.87292a1.07965,1.07965,0,0,0-.18227.46409c-.23211,1.64253-.31556,8.012,8.99255,19.47231,8.63967,10.63757,5.14023,20.87959,2.32817,29.108-2.23052,6.5274-3.3703,10.3782-.866,13.61958,2.70016,3.49493,5.0001,8.42523,7.6633,14.13429,6.49118,13.91561,14.57013,31.23356,32.16059,34.8794A130.24128,130.24128,0,0,0,343.68891,316.64639Z" transform="translate(-59.14041)"/><path class="cls-6" d="M558.0839,320.34042a53.75313,53.75313,0,0,0-19.34215-7.57369q-19.31244-3.73768-46.47405,2.94711c-3.04968.7535-6.05757,1.5852-9.007,2.4682a261.70391,261.70391,0,0,0-41.892,16.92815,1.08341,1.08341,0,0,0-.34154,1.66217q.80058.9552,1.583,1.95994a96.02136,96.02136,0,0,1,13.36952,24.31422c4.95858,12.798,8.14736,28.12013,8.08809,41.79594a1.0869,1.0869,0,0,0,.23823.682,11.82828,11.82828,0,0,0,3.49135,3.30173c8.21853,4.00714,19.646,14.90356,29.72819,24.51666,6.15713,5.87089,11.97263,11.41594,14.85359,13.1843.422.258,1.61792.25888,3.60732-.59,7.83506-3.34653,18.75274-15.78038,19.96142-21.36737,1.76268-8.14417,11.323-17.23261,29.22662-27.7852,4.80825-2.83442,7.026-10.97162,8.80761-17.50977,1.23414-4.52879,2.2088-8.10481,4.00153-10.46945,2.04411-2.69567,3.53486-5.97175-.62-16.31663a58.18,58.18,0,0,1-4.24417-16.29339,1.10077,1.10077,0,0,0-.16367-.49216A48.91376,48.91376,0,0,0,558.0839,320.34042Z" transform="translate(-59.14041)"/><path class="cls-6" d="M598.67177,214.3476c-2.779-.79392-5.65229-1.61438-8.16646-2.53619-3.45341-1.26719-6.36882-3.64787-9.45544-6.16832-5.54684-4.52853-10.779-8.80749-19.40684-7.45774-15.55769,2.43977-35.2822.84081-37.08171.68791a37.22759,37.22759,0,0,0-19.3804,4.91218c-19.2618,10.51984-34.77762,36.03059-45.32879,58.42289a403.28386,403.28386,0,0,0-20.01489,52.74028c-1.49684,4.91636-2.58438,8.80207-3.24687,11.25122a1.08845,1.08845,0,0,0,1.5439,1.256q1.31167-.66455,2.81949-1.40663.90944-.447,1.88741-.91791a252.46223,252.46223,0,0,1,47.2877-17.40789c29.0512-7.20364,52.7102-5.68511,69.97091,4.249a1.07968,1.07968,0,0,0,.52925.14223,76.69036,76.69036,0,0,1,7.73836.33331c2.95891.34676,5.184-.19126,6.8-1.6534,3.0254-2.73827,3.597-8.35591,3.5618-10.28886l-.026-1.43066a1.09022,1.09022,0,0,1,.37182-.84l1.08378-.949c11.237-9.71357,17.34247-23.29986,16.77271-28.76352-.94762-9.0914,9.441-19.48583,13.03683-22.78463a1.01927,1.01927,0,0,0,.18772-.22186c2.31744-3.75329,3.9681-22.04576,2.234-25.40953C611.277,217.94748,603.386,215.69432,598.67177,214.3476Z" transform="translate(-59.14041)"/><path d="M619.74067,216.31707c-2.75262-5.33878-10.5464-7.56484-18.798-9.92165-2.75646-.787-5.35994-1.53067-7.58892-2.34867-2.14809-.78784-4.54064-2.74107-7.07384-4.80921-5.75879-4.70282-13.64642-11.14455-25.9159-9.22207-14.9524,2.33945-34.98273.628-35.18328.61077l-.19731-.01263a43.6499,43.6499,0,0,0-18.48524,3.36511,1.08429,1.08429,0,0,1-1.43681-.61524,24.25227,24.25227,0,0,0-6.94229-9.51325,1.0699,1.0699,0,0,1-.36593-.68567c-2.02374-16.46626-10.36775-30.648-17.33238-34.66238-3.30824-1.90667-5.94807-10.684-6.752-17.9739-.7698-6.98078-19.29469-22.89431-26.28136-23.955-5.94325-.89964-12.31255,4.1039-19.05988,9.40422-2.25479,1.77133-4.38449,3.44408-6.355,4.76961-1.89854,1.27784-4.88406,2.07008-8.04468,2.90854-7.18637,1.90631-17.02828,4.51743-22.66918,15.58034-6.87674,13.48637-20.0109,28.7024-20.143,28.8551l-.12565.15213a45.0976,45.0976,0,0,0-9.11512,22.34937,1.0939,1.0939,0,0,1-1.439.8959l-.013-.00436c-74.42706-24.96937-91.86677,6.555-92.57319,7.91036l-.09307.19061c-.77925,1.70223-3.95488,11.06853,10.08916,28.36,5.75266,7.08288,3.51414,13.63449.92195,21.22013-2.31144,6.764-4.93094,14.43064.41531,21.34986,2.13834,2.7677,4.25835,7.31171,6.71275,12.57379,5.7212,12.26428,13.20123,28.28819,27.97336,35.94032a1.09105,1.09105,0,0,1-.19382,2.02568c-9.54695,2.72408-16.399,6.61433-20.486,11.66489-5.1366,6.34787-6.00839,14.20525-2.591,23.356,7.26158,19.4435,12.76745,32.12678,16.78761,41.38821,6.38563,14.7105,9.02914,20.7991,9.533,32.81688.20423,4.87563,1.91466,8.46012,5.08414,10.65547,6.85565,4.74814,17.8341,1.1411,29.45671-2.67749,6.78192-2.22743,13.79621-4.53206,18.14295-4.32045,3.34.16322,9.33685,1.70835,16.28057,3.49686,13.6925,3.52687,31.63856,8.15,46.8726,6.80886,9.8101-.86361,18.49824-4.20336,24.19245-11.90236,3.23607-4.37606,5.25636-10.11546,6.286-16.61356a10.17446,10.17446,0,0,0,.93836.53224c7.0652,3.44468,18.47671,14.32548,27.646,23.06795,7.0435,6.71629,12.60677,12.02087,16.23542,14.24714a9.80318,9.80318,0,0,0,6.12219,1.316,16.61645,16.61645,0,0,0,5.05818-1.34926c9.92875-4.24024,22.90612-18.48823,24.79643-27.22251.5572-2.57612,4.14275-9.91518,25.34289-22.41025,7.70433-4.5414,10.41191-14.477,12.58721-22.46046.838-3.07431,1.78751-6.55894,2.61195-7.64656,5.56872-7.34258,4.2129-15.063.46458-24.39542-3.64456-9.07479-3.72836-14.67284-3.7285-14.702l.00427-.84367a1.09024,1.09024,0,0,0-.15218-.56109l-.43-.726a59.84565,59.84565,0,0,0-7.69353-10.32,1.08473,1.08473,0,0,1,.59144-1.80087,14.86661,14.86661,0,0,0,7.13024-3.56536c4.66226-4.25213,5.85545-10.64606,6.14982-14.15346a1.07444,1.07444,0,0,1,.34115-.70067c12.14736-11.29687,18.74036-26.37336,17.9071-34.36832-.39606-3.7991,5.16394-11.08416,10.597-16.01178C620.9561,246.93537,622.97878,222.59817,619.74067,216.31707ZM377.43222,173.429c1.18041-1.36786,14.04133-16.409,21.194-30.43613,3.96321-7.77362,10.50115-9.50772,17.42246-11.34448,3.85145-1.0217,7.48942-1.9865,10.541-4.04038,2.22234-1.49525,4.57269-3.34147,6.84613-5.1266,3.85517-3.02859,10.30034-8.10044,12.70985-7.73207,3.74081.56843,17.58746,12.6337,19.26822,16.7126a1.0191,1.0191,0,0,1,.06959.28215c.56268,4.84682,2.88846,19.35847,10.80749,23.92369,4.75929,2.74289,12.18174,15.65634,13.45817,30.455l.12394,1.435a1.09017,1.09017,0,0,0,.46975.80539l1.18764.81414c1.43595.98543,5.575,4.63314,6.19228,8.61151l-.49416,1.105c-29.22429,19.0665-49.59874,66.73145-60.41687,98.32093-2.21842,6.47769-4.03453,12.27726-5.44312,17.01739-.42106,1.4169-.80575,2.73894-1.1538,3.95583a1.08613,1.08613,0,0,1-1.89262.38378c-6.35383-7.91235-23.42892-29.98692-37.49342-55.48554-9.7834-17.73723-19.307-39.385-20.9526-58.59993a62.38851,62.38851,0,0,1-.1367-9.2634C370.25648,187.07671,372.58886,179.62158,377.43222,173.429ZM293.39066,279.593c-2.6632-5.70906-4.96314-10.63936-7.6633-14.13429-2.50433-3.24138-1.36455-7.09218.866-13.61958,2.81206-8.22845,6.3115-18.47047-2.32817-29.108-9.30811-11.46027-9.22466-17.82978-8.99255-19.47231a1.07965,1.07965,0,0,1,.18227-.46409c1.06795-1.56938,5.14866-6.63344,15.10214-9.87292,11.14716-3.62919,31.86249-5.46418,67.23545,6.40343.97725.32781,1.94279.67911,2.90177,1.0435a1.08519,1.08519,0,0,1,.69715.97978c1.535,42.85017,40.84806,97.35483,56.72215,117.68823a1.08678,1.08678,0,0,1-1.091,1.73042q-.42261-.0959-.84681-.17968l-.19345-.03323a463.64477,463.64477,0,0,0-52.34243-4.19105q-10.6601-.1927-19.82794.28386a1.077,1.077,0,0,1-.123-.00068,130.24128,130.24128,0,0,1-18.13766-2.17395C307.96079,310.8266,299.88184,293.50865,293.39066,279.593ZM450.29907,427.42372c-11.22214,15.17338-41.99171,7.24769-62.35294,2.003-7.6862-1.98015-13.75724-3.54388-17.94-3.748a22.82623,22.82623,0,0,0-3.11025.07518c-5.28719.46544-11.5021,2.50756-18.01762,4.6483-7.88855,2.59158-18.694,6.142-22.16663,3.73583-.92513-.64092-1.44-2.05573-1.53022-4.20354-.56814-13.55414-3.58956-20.51425-10.20949-35.76354-3.984-9.17786-9.44014-21.74716-16.62639-40.98892-2.35335-6.30142-1.9374-11.29245,1.27214-15.259,6.76082-8.35657,24.33375-11.93365,44.24045-12.9832,23.32286-1.22958,49.84216,1.01072,65.944,3.10686,1.74833.22764,3.38108.4536,4.86612.67311a29.71476,29.71476,0,0,1,11.70611,5.46914c.06108.04509.12279.08709.18377.1328.14223.10645.28327.2195.425.32863a47.18062,47.18062,0,0,1,5.74278,5.27509c.92523.99491,1.83691,2.04137,2.72956,3.14981.0291.08246.05982.16894.08967.25306.0294-.00968.0588-.01653.08817-.02651a86.85869,86.85869,0,0,1,12.6349,22.73258,116.29736,116.29736,0,0,1,6.30683,23.14809,90.65216,90.65216,0,0,1,1.20727,18.623C455.389,416.06454,453.57576,422.9928,450.29907,427.42372Zm122.65666-91.72049a1.10077,1.10077,0,0,1,.16367.49216,58.18,58.18,0,0,0,4.24417,16.29339c4.15485,10.34488,2.6641,13.621.62,16.31663-1.79273,2.36464-2.76739,5.94066-4.00153,10.46945-1.78165,6.53815-3.99936,14.67535-8.80761,17.50977-17.90362,10.55259-27.46394,19.641-29.22662,27.7852-1.20868,5.587-12.12636,18.02084-19.96142,21.36737-1.9894.84885-3.18532.84793-3.60732.59-2.881-1.76836-8.69646-7.31341-14.85359-13.1843-10.08219-9.6131-21.50966-20.50952-29.72819-24.51666a11.82828,11.82828,0,0,1-3.49135-3.30173,1.0869,1.0869,0,0,1-.23823-.682c.05927-13.67581-3.12951-28.998-8.08809-41.79594a96.02136,96.02136,0,0,0-13.36952-24.31422q-.78231-1.00457-1.583-1.95994a1.08341,1.08341,0,0,1,.34154-1.66217,261.70391,261.70391,0,0,1,41.892-16.92815c2.94945-.883,5.95734-1.7147,9.007-2.4682q27.13355-6.7037,46.47405-2.94711a53.75313,53.75313,0,0,1,19.34215,7.57369A48.91376,48.91376,0,0,1,572.95573,335.70323Zm37.2004-90.18712a1.01927,1.01927,0,0,1-.18772.22186c-3.59586,3.2988-13.98445,13.69323-13.03683,22.78463.56976,5.46366-5.53569,19.04995-16.77271,28.76352l-1.08378.949a1.09022,1.09022,0,0,0-.37182.84l.026,1.43066c.03517,1.933-.5364,7.55059-3.5618,10.28886-1.616,1.46214-3.84112,2.00016-6.8,1.6534a76.69036,76.69036,0,0,0-7.73836-.33331,1.07968,1.07968,0,0,1-.52925-.14223c-17.26071-9.93415-40.91971-11.45268-69.97091-4.249a252.46223,252.46223,0,0,0-47.2877,17.40789q-.97639.4704-1.88741.91791-1.45779.71643-2.73558,1.36414a1.08848,1.08848,0,0,1-1.53774-1.2825c1.614-5.35914,5.15143-16.86569,3.15678-11.18227-6.25482,17.82226,2.65876-8.705,20.0149-52.74032,9.07684-23.02934,26.067-47.903,45.3288-58.42283a37.22759,37.22759,0,0,1,19.3804-4.91218c1.79951.1529,21.524,1.75186,37.08171-.68791,8.62781-1.34975,13.86,2.92921,19.40684,7.45774,3.08662,2.52045,6.002,4.90113,9.45544,6.16832,2.51417.92181,5.3875,1.74227,8.16646,2.53619,4.71422,1.34672,12.60525,3.59988,13.71834,5.759C614.12423,223.47035,612.47357,241.76282,610.15613,245.51611Z" transform="translate(-59.14041)"/><path d="M513.13938,456.22354a10.93729,10.93729,0,0,1-5.75823-1.55193c-3.74674-2.299-9.35179-7.64542-16.44977-14.41317-8.85206-8.44022-19.80852-18.88691-26.73824-22.54576a37.44422,37.44422,0,0,1-6.21151,15.3938c-5.3577,7.24488-13.80671,11.4223-25.11223,12.418-15.45281,1.3548-33.86259-3.38137-47.30391-6.84434-6.9021-1.77669-12.82356-3.30226-16.02537-3.458-4.09831-.20592-11.00167,2.06548-17.67022,4.25527-11.94338,3.92379-23.21626,7.62659-30.59925,2.51625-3.51823-2.4384-5.4142-6.35968-5.63644-11.65836-.49346-11.78014-3.1089-17.80457-9.42713-32.35962-4.02675-9.2752-9.54014-21.977-16.81264-41.45024-3.58854-9.60669-2.64809-17.8887,2.795-24.615,4.16486-5.14675,11.11844-9.16847,20.67113-11.95844-14.89406-7.943-22.53571-24.32748-28.12946-36.31982-2.42082-5.1907-4.51267-9.67323-6.56559-12.33136-5.76828-7.46712-2.91051-15.83075-.614-22.55078,2.57024-7.52363,4.59931-13.46518-.7044-19.99436-14.52114-17.87865-11.09458-27.88211-10.2596-29.70526l.1218-.25112c.72574-1.39247,18.65587-33.78223,93.921-8.6022a46.441,46.441,0,0,1,9.34929-22.74916l.16574-.19965c.13058-.15067,13.145-15.21675,19.968-28.59655,5.90137-11.57548,16.06429-14.27,23.4837-16.23882,3.05364-.80987,5.93653-1.57454,7.65672-2.73221,1.91606-1.28826,4.00916-2.9306,6.22406-4.66962,7.02515-5.52092,13.61836-10.6953,20.10234-9.70839,7.47717,1.13507,26.5361,17.54466,27.36731,25.08461.87516,7.93546,3.61742,15.56205,6.11483,17.001,7.18963,4.14351,15.87469,18.59937,17.96654,35.61918a24.51738,24.51738,0,0,1,7.162,9.70839,45.15168,45.15168,0,0,1,18.84422-3.38638l.26619.01632c.82619.07031,20.39615,1.66494,34.86331-.60144,12.81728-2.00144,20.97875,4.63949,26.92533,9.49619,2.451,2.00019,4.76379,3.88612,6.705,4.59931,2.17472.79857,4.7437,1.53184,7.46085,2.30781,8.56578,2.44719,16.62178,4.74747,19.62772,10.581h0c3.46548,6.72129,1.35355,31.782-4.26406,36.87731-5.91393,5.36272-10.48184,12.05764-10.183,14.92671.85884,8.25313-5.75572,23.76621-18.30933,35.44214-.24107,3.51069-1.50171,10.3023-6.50155,14.86393a16.22588,16.22588,0,0,1-7.40309,3.802,61.58909,61.58909,0,0,1,7.614,10.27844l.43193.727a2.39817,2.39817,0,0,1,.33148,1.21543l-.005.85131c0,.03013.13058,5.487,3.63625,14.21477,3.91,9.73853,5.29868,17.82843-.63283,25.65215-.678.89274-1.71265,4.69222-2.3957,7.20721-2.24,8.21421-5.025,18.42484-13.17639,23.23006-21.3454,12.58123-24.33375,19.69427-24.74057,21.57518-1.99391,9.21995-15.1251,23.68083-25.54667,28.132a18.01193,18.01193,0,0,1-5.44935,1.44772C513.9028,456.206,513.51858,456.22354,513.13938,456.22354Zm-50.86984-42.623,1.64987,1.03839a8.47886,8.47886,0,0,0,.8149.46458c7.24613,3.53329,18.73749,14.48976,27.97125,23.29285,6.98748,6.66353,12.50589,11.92705,16.02161,14.08294a8.522,8.522,0,0,0,5.33634,1.1313,15.44785,15.44785,0,0,0,4.66586-1.25184c9.44973-4.03554,22.257-18.05067,24.045-26.31008.73579-3.40522,5.08522-10.9527,25.946-23.24639,7.25242-4.27411,9.88418-13.926,11.99863-21.6819,1.08484-3.98783,1.92108-6.89833,2.83014-8.09619,5.20075-6.8594,3.87984-14.20975.29633-23.13715-3.77939-9.40453-3.82208-15.1251-3.82208-15.1816l.005-.8513-.40431-.6253A58.84234,58.84234,0,0,0,572.09537,323.13a2.33233,2.33233,0,0,1-.51983-2.3279,2.382,2.382,0,0,1,1.798-1.60844,13.53443,13.53443,0,0,0,6.51913-3.25455c4.35195-3.97024,5.46191-10.04363,5.73564-13.31074a2.35916,2.35916,0,0,1,.74583-1.53686c11.80777-10.98158,18.2817-25.8317,17.50574-33.29254-.53741-5.13922,6.96864-13.43128,11.01171-17.09766,4.79895-4.35321,6.72505-27.93862,3.70656-33.79479h0c-2.49866-4.84415-10.03233-6.99626-18.01049-9.27394-2.80252-.80234-5.41419-1.54817-7.67681-2.37939-2.3505-.86135-4.82154-2.87911-7.44075-5.01617-5.57743-4.55535-13.21657-10.79072-24.90882-8.95125-14.766,2.30907-34.63479.6931-35.47354.62278a42.81261,42.81261,0,0,0-18.1034,3.25957,2.39941,2.39941,0,0,1-1.86835-.02134,2.32977,2.32977,0,0,1-1.26064-1.33723,23.19944,23.19944,0,0,0-6.57563-8.98516,2.35626,2.35626,0,0,1-.8036-1.50422c-1.96754-16.00779-10.19933-29.95889-16.69712-33.70438-4.47625-2.57777-6.78909-13.52042-7.388-18.94718-.70943-6.44128-18.681-21.83508-25.19636-22.8245-5.40541-.80736-11.55288,4.02172-18.072,9.14462-2.31032,1.81436-4.43984,3.48557-6.43375,4.82531-2.078,1.39875-5.16433,2.21741-8.43143,3.085-6.95232,1.84324-16.47237,4.36953-21.85392,14.92043-6.96864,13.66733-20.18395,28.96068-20.317,29.11386a44.04067,44.04067,0,0,0-8.93744,21.83007,2.37783,2.37783,0,0,1-3.124,1.94243c-73.398-24.62129-90.35,5.96792-91.0356,7.2838-.50727,1.09991-3.99661,10.09135,9.854,27.14381,6.20146,7.63537,3.74423,14.83,1.14135,22.44656-2.3141,6.774-4.70729,13.77657.21471,20.1488,2.22871,2.88414,4.3758,7.486,6.86191,12.816,5.79465,12.42553,13.00814,27.88839,27.3987,35.343a2.37615,2.37615,0,0,1-.43318,4.40343c-9.27144,2.64557-15.94627,6.42622-19.83867,11.23647-4.83033,5.96918-5.63267,13.40491-2.38566,22.09876,7.2499,19.4105,12.747,32.07585,16.76242,41.32343,6.45384,14.8677,9.12452,21.02019,9.63807,33.27747.18709,4.45114,1.7114,7.69816,4.5315,9.65189,6.33079,4.38585,17.01354.87641,28.32283-2.84271,6.89958-2.26512,13.99756-4.60809,18.60816-4.38334,3.46423.16951,9.50247,1.724,16.495,3.5245,13.307,3.42908,31.46814,8.11125,46.48274,6.78533,10.689-.94171,18.30179-4.66585,23.2715-11.38589,2.96073-4.00414,4.99608-9.40453,6.04954-16.05048Zm50.85729,34.36107a2.70974,2.70974,0,0,1-1.41884-.33651c-3.00342-1.84574-8.86462-7.43447-15.06985-13.35217-10.01978-9.55395-21.36674-20.37229-29.40517-24.29106a13.564,13.564,0,0,1-3.92881-3.65257,2.373,2.373,0,0,1-.52233-1.49292,117.82575,117.82575,0,0,0-8.00076-41.32469A94.55829,94.55829,0,0,0,441.5959,339.522q-.76843-.98315-1.55445-1.9236a2.37174,2.37174,0,0,1,.74332-3.635,264.77368,264.77368,0,0,1,42.10693-17.01354c3.10011-.9279,6.15-1.76288,9.06677-2.4836,18.16745-4.49007,33.98564-5.487,47.02642-2.962a55.25941,55.25941,0,0,1,19.801,7.75843,50.40139,50.40139,0,0,1,15.2607,15.76043l.00251.00126a2.38457,2.38457,0,0,1,.35157,1.06224,56.76827,56.76827,0,0,0,4.15607,15.92241c3.99034,9.93566,3.18675,13.96743.452,17.57354-1.63982,2.16342-2.58656,5.62891-3.78441,10.016-1.84324,6.77654-4.136,15.1929-9.397,18.293-17.57605,10.3613-26.9404,19.177-28.62292,26.95044-1.29328,5.97671-12.428,18.73749-20.71256,22.27832A8.99141,8.99141,0,0,1,513.12683,447.96162ZM442.176,336.14188q.73077.87955,1.44772,1.79929a97.17888,97.17888,0,0,1,13.55558,24.64138,120.49335,120.49335,0,0,1,8.174,42.26514,10.89387,10.89387,0,0,0,3.00845,2.82387c8.395,4.092,19.89516,15.05729,30.043,24.73178,5.83734,5.56738,11.86428,11.31557,14.63667,13.0232a6.9592,6.9592,0,0,0,2.44091-.67175c7.393-3.15787,18.0808-15.24941,19.21085-20.45768,1.84073-8.513,11.59934-17.87489,29.82831-28.62041,4.35948-2.57024,6.499-10.4266,8.21923-16.73981,1.27319-4.67088,2.27768-8.34856,4.21886-10.90876,1.45148-1.91355,3.43786-4.53275-.78853-15.0598a59.52253,59.52253,0,0,1-4.32935-16.62178,47.85713,47.85713,0,0,0-14.45962-14.92922,52.72554,52.72554,0,0,0-18.8844-7.38928c-12.67163-2.4497-28.12067-1.46279-45.92147,2.93437-2.87787.71067-5.88757,1.53561-8.94624,2.45095A261.93025,261.93025,0,0,0,442.176,336.14188ZM427.12874,437.51116c-12.95163,0-27.8909-3.84845-39.50028-6.83931-7.61528-1.96127-13.62841-3.51069-17.68529-3.70908a21.513,21.513,0,0,0-2.93562.07157c-5.138.45328-11.25153,2.461-17.72546,4.588-10.56472,3.473-19.60136,6.13742-23.3029,3.57221-1.29328-.89651-1.97382-2.59912-2.0818-5.207-.55875-13.3145-3.54962-20.2053-10.10391-35.304-4.00163-9.21744-9.46229-21.79993-16.65192-41.05222-2.52629-6.764-2.04288-12.16562,1.4766-16.51631,6.21151-7.67806,21.40943-12.207,45.17188-13.46016,27.90345-1.464,57.7079,2.014,66.17826,3.11769,1.75534.22726,3.39517.45453,4.8881.67552a30.97776,30.97776,0,0,1,12.28239,5.708l.4696.35157a49.263,49.263,0,0,1,6.05958,5.54227c.94547,1.017,1.87714,2.08557,2.79,3.21939l.17955.22977a87.67835,87.67835,0,0,1,12.82984,23.07061,116.96516,116.96516,0,0,1,6.37725,23.40711,91.403,91.403,0,0,1,1.22171,18.89067c-.41812,8.78677-2.40073,15.81443-5.73438,20.32082h0C446.18014,435.15438,437.26278,437.51116,427.12874,437.51116Zm-58.08207-13.14123q.52359,0,1.02081.02386c4.32056.2122,10.44543,1.78925,18.19883,3.78692,20.027,5.1568,50.28975,12.95415,60.99886-1.5218h0c3.02854-4.0958,4.83787-10.63628,5.23214-18.91453a88.793,88.793,0,0,0-1.19158-18.35578,115.87341,115.87341,0,0,0-6.23662-22.8898,86.10387,86.10387,0,0,0-11.87934-21.6819l-.33776.11677-.53489-1.22171c-.82871-1.02206-1.675-1.98889-2.53257-2.91176a46.06217,46.06217,0,0,0-5.585-5.13043l-.41435-.32144a28.78471,28.78471,0,0,0-11.37082-5.36773c-1.41256-.20718-3.03732-.43193-4.7776-.6592-8.41511-1.09489-38.02368-4.5541-65.71117-3.09759-22.67886,1.19534-37.65579,5.52092-43.30856,12.5084-2.898,3.58226-3.247,8.16147-1.06726,14.00007,7.167,19.18951,12.61261,31.73558,16.58913,40.89652,6.69744,15.43021,9.74857,22.45786,10.32741,36.252.09794,2.34423.7157,3.01849.97686,3.1993,2.95195,2.04916,14.26752-1.6775,21.029-3.89867,6.62586-2.176,12.87629-4.23016,18.31058-4.70855C367.565,424.40384,368.32343,424.36993,369.04667,424.36993Zm68.67567-95.552a2.37432,2.37432,0,0,1-2.27392-3.05741l.86512-2.85652c.15193-.501.3139-1.03714.4809-1.59086-.16825-.21345-.25866-.41184-.0678-1.2192l-.07157-.03139c.03264-.08413.15318-.4131.36412-1.00072.64539-2.06674,2.19858-6.25546,5.5046-15.18034,3.44038-9.28149,9.03162-24.12909,16.1321-42.1446,7.88022-19.99185,24.63133-47.45961,45.91018-59.08029a38.473,38.473,0,0,1,20.04207-5.06765c2.2149.18583,21.53625,1.72144,36.83713-.67426,9.1735-1.43642,14.889,3.21813,20.4062,7.72326,3.01347,2.45975,5.84613,4.77384,9.09565,5.96667,2.4836.91032,5.3263,1.72144,8.0786,2.5062,8.53314,2.43965,13.35971,4.17993,14.50734,6.40738,1.93113,3.74549.329,22.43778-2.2827,26.6717a2.32981,2.32981,0,0,1-.40431.48844c-3.19428,2.93185-13.528,13.13872-12.63648,21.71078.58763,5.62137-5.20325,19.49211-17.20941,29.86974l-1.07982.94422.09542,1.27695c0,.0766.09041,7.57887-3.98531,11.26786-1.906,1.7227-4.44737,2.37436-7.81492,1.97759a74.73078,74.73078,0,0,0-7.59394-.3252,2.3745,2.3745,0,0,1-1.16019-.3114c-17.109-9.84776-40.33024-11.2327-69.02347-4.11715a251.00872,251.00872,0,0,0-47.039,17.31865l-1.87714.91283q-1.45212.71193-2.72217,1.35606A2.37922,2.37922,0,0,1,437.72234,328.8179Zm3.7819-14.69317c-.29256,1.48163-1.12754,4.23644-2.7297,9.52507l-.72951,2.40952q1.10556-.5556,2.343-1.16395l1.896-.92288a253.61724,253.61724,0,0,1,47.5362-17.49694c29.36373-7.28129,53.22286-5.80469,70.91945,4.38334a62.28854,62.28854,0,0,1,7.77725.31265c2.5715.30009,4.46245-.1331,5.78586-1.3297,2.65939-2.40575,3.17168-7.66174,3.14154-9.31287l-.02762-1.42888a2.38563,2.38563,0,0,1,.80861-1.83069l1.08736-.95175c10.76813-9.30659,16.86789-22.59849,16.34053-27.66238-.98942-9.48488,9.04291-19.82233,13.42751-23.84657,2.07678-3.45544,3.67643-21.18216,2.16718-24.11276-.85632-1.66118-9.60793-4.16235-12.90266-5.10406-2.8201-.80611-5.71052-1.631-8.282-2.574-3.65634-1.341-6.65223-3.78818-9.82642-6.3785-5.55733-4.53527-10.34624-8.444-18.39471-7.18336-15.59469,2.44342-35.20734.88521-37.3896.69812a36.01325,36.01325,0,0,0-18.65587,4.76c-20.67364,11.29046-37.02673,38.17435-44.74748,57.76566-9.19736,23.33428-16.06555,41.86334-19.50969,51.34321l.00753.00377C441.53437,314.05191,441.52056,314.08455,441.50424,314.12473Zm167.599-69.33737-.005.005.00251-.00251ZM417.2747,322.08154a2.39339,2.39339,0,0,1-.5374-.06152l-.81363-.172a462.66967,462.66967,0,0,0-52.30752-4.19876c-7.00883-.12682-13.65352-.0314-19.73822.28251l-.07282.00376-.19462-.00627a128.6308,128.6308,0,0,1-18.32063-2.19732c-18.2252-3.77814-26.45322-21.42074-33.064-35.59533-2.62925-5.6377-4.90065-10.507-7.51609-13.89209-3.04862-3.94513-1.40879-8.74533.66673-14.82124,2.8515-8.341,6.08344-17.79452-2.10942-27.88085-9.34929-11.51145-9.59539-18.14484-9.26767-20.4627a2.35378,2.35378,0,0,1,.393-1.00951c1.07481-1.57831,5.38909-6.99376,15.76672-10.37135,11.33315-3.68773,32.33325-5.57492,68.04284,6.40738.99193.33274,1.97382.69059,2.94817,1.061a2.36682,2.36682,0,0,1,1.52557,2.13705c1.513,42.21869,39.98244,95.8446,56.451,116.94138a2.37516,2.37516,0,0,1-1.852,3.83589Zm-59.60387-7.059q2.94565,0,5.993.05524a465.25691,465.25691,0,0,1,52.51093,4.205l.59013.11551c-16.80384-21.58522-55.12887-75.3166-56.65821-118.00362-.81238-.18207-1.76162-.52736-2.72342-.85-35.03658-11.755-55.46413-9.97081-66.42813-6.39985-9.60291,3.12521-13.479,7.96434-14.43827,9.37314-.12682,1.02332-.43947,7.093,8.74659,18.40224,9.08937,11.19252,5.30747,22.25571,2.54638,30.33432-2.32288,6.79788-3.06872,9.82516-1.066,12.418,2.79123,3.61114,5.11788,8.59969,7.81242,14.37676h0c6.36846,13.65477,14.29388,30.64822,31.25594,34.16393a126.17382,126.17382,0,0,0,17.9565,2.14961C348.132,315.13676,352.79277,315.0225,357.67083,315.0225Zm71.49451,5.24217a2.36278,2.36278,0,0,1-1.84574-.88771c-6.63717-8.26569-23.58792-30.23638-37.61687-55.66879-12.60383-22.85213-19.70557-42.741-21.10683-59.11294a63.77082,63.77082,0,0,1-.13937-9.4535c.565-8.89977,3.2445-16.47236,7.96183-22.50558l.04018-.049c.56126-.64915,13.82554-16.06555,21.0227-30.17862,4.22262-8.28452,11.34571-10.17422,18.23525-12.00239,3.74549-.99319,7.28-1.92987,10.15664-3.86477,2.15086-1.44772,4.44863-3.25078,6.67106-4.99357,7.0804-5.56236,11.29674-8.4578,13.79666-8.06856,4.16361.63158,18.36709,12.89388,20.26181,17.49318a2.2625,2.2625,0,0,1,.15695.61274c.49973,4.30926,2.70835,18.66467,10.173,22.9689,4.89689,2.82262,12.73441,15.64994,14.09675,31.45809l.12431,1.43517,1.10368.67049c1.63983,1.12377,6.04451,5.01868,6.73636,9.47359l.05775.37543-.80484,1.79678-.31516.20717c-29.64248,19.33893-50.2546,69.48806-59.90271,97.66021-1.92862,5.63142-3.75554,11.34068-5.42676,16.96833-.42063,1.41131-.80359,2.7297-1.15014,3.94137a2.36943,2.36943,0,0,1-1.81561,1.6775A2.40394,2.40394,0,0,1,429.16534,320.26467ZM378.42608,174.24459c-4.38208,5.61384-6.872,12.69926-7.40308,21.06037a61.191,61.191,0,0,0,.13435,9.0718c1.37113,16.0103,8.36865,35.55389,20.798,58.08835,13.76527,24.95653,30.37324,46.56812,37.12843,55.00206.32144-1.11749.67175-2.32162,1.05346-3.60109,1.68126-5.6603,3.51822-11.40347,5.45814-17.06878,11.87306-34.66618,32.01056-79.877,60.61339-98.77268l.177-.39552c-.69435-3.15786-4.018-6.317-5.58245-7.39179l-1.18781-.81489a2.36315,2.36315,0,0,1-1.02332-1.75534l-.12431-1.43391c-1.22171-14.17083-8.40883-26.909-12.81853-29.45162-8.27448-4.77007-10.75808-18.99364-11.44239-24.88873-1.49418-3.61365-14.98447-15.37622-18.25408-15.87219-1.87965-.28628-8.994,5.32882-11.68221,7.44075-2.39822,1.88091-4.73366,3.7141-6.96237,5.21456-3.23571,2.17472-6.97241,3.1654-10.93009,4.21509-6.926,1.83821-12.90518,3.424-16.60672,10.68525C392.59315,157.6542,379.95291,172.47543,378.42608,174.24459Z" transform="translate(-59.14041)"/><path class="cls-4" d="M366.568,632.38081c5.86031-12.00366,13.32734-26.26762,24.63447-40.08745,12.19179-14.90108,21.54249-27.81037,31.45785-37.47851l45.45419,1.2041a207.645,207.645,0,0,0-34.24633,76.26156Z" transform="translate(-59.14041)"/><path class="cls-4" d="M639.13216,622.35483c-4.43956-7.66311-10.04789-16.74557-18.17494-25.35389-8.76292-9.28183-15.55334-17.37989-22.56492-23.30794l-30.00387,2.93176a137.66887,137.66887,0,0,1,26.23107,48.82552Z" transform="translate(-59.14041)"/><ellipse cx="432.6028" cy="324.58946" rx="30.55474" ry="27.09287" transform="translate(-134.09625 137.80688) rotate(-16.67782)"/><ellipse class="cls-6" cx="360.81057" cy="318.00633" rx="7.12442" ry="6.58312"/><ellipse class="cls-6" cx="368.88134" cy="308.44857" rx="3.44371" ry="3.18206"/><path d="M321.80428,902.27325v45.73439H290.27086V817.63h51.08078q23.23761,0,35.40574,11.524,12.1744,11.52651,12.17189,31.07387A42.82689,42.82689,0,0,1,383.49,881.89467a37.72848,37.72848,0,0,1-16.13711,14.93927q-10.69782,5.4393-26.00121,5.43931Zm35.0391-42.04541q0-17.1504-18.99489-17.15165H321.80428v33.93164h16.04421Q356.8371,877.00783,356.84338,860.22784Z" transform="translate(-59.14041)"/><path d="M435.95192,817.63V948.00764H404.4185V817.63Z" transform="translate(-59.14041)"/><path d="M519.11861,881.43512,571.676,948.00764h-38.1731L489.2451,889.54888v58.45876H457.71167V817.63H489.2451v57.35131L533.872,817.63H571.676Z" transform="translate(-59.14041)"/><path d="M665.7238,924.21882H616.85541l-8.11377,23.78882H575.54579l47.76346-129.45606h36.32986l47.761,129.45606H673.83757ZM657.61,900.24418,641.38252,852.2974l-16.41335,47.94678Z" transform="translate(-59.14041)"/><path d="M293.38226,984.76692l-2.61669,14.86644h-4.76379l6.49151-36.90242h11.7249q5.49581,0,8.19161,2.25257a7.73481,7.73481,0,0,1,2.69454,6.28057,14.77581,14.77581,0,0,1-.20843,2.51122,12.67732,12.67732,0,0,1-4.68594,8.08614q-3.74048,2.908-9.8666,2.90548Zm16.64439-10.99162a12.73185,12.73185,0,0,0,.1582-1.88342,4.63364,4.63364,0,0,0-1.675-3.84719q-1.67625-1.33347-5.3916-1.336h-6.54173l-2.461,14.08042h6.49151Q308.82252,980.78914,310.02665,973.7753Z" transform="translate(-59.14041)"/><path d="M332.482,995.91675h13.086l-.68055,3.71661H327.03767l6.49151-36.90242H338.293Z" transform="translate(-59.14041)"/><path d="M384.09015,991.10023H367.86262l-4.60558,8.53313h-5.07769l19.94413-36.22188h5.44182l7.22479,36.22188h-5.13043Zm-.68054-3.71661-3.45545-18.686-10.10265,18.686Z" transform="translate(-59.14041)"/><path d="M429.73162,995.36679a11.37952,11.37952,0,0,1-4.23894,3.35,15.93687,15.93687,0,0,1-12.77208-.10548,9.807,9.807,0,0,1-4.10836-3.71661,9.6237,9.6237,0,0,1-1.33346-5.20576H412.354a6.08815,6.08815,0,0,0,.6027,3.06118,5.74147,5.74147,0,0,0,2.30279,2.45849,7.80453,7.80453,0,0,0,4.10836.96933,7.09623,7.09623,0,0,0,5.36648-2.04163,6.97234,6.97234,0,0,0,1.96127-5.02495,5.08231,5.08231,0,0,0-1.01956-3.26962,7.48862,7.48862,0,0,0-2.51373-2.04162,43.81315,43.81315,0,0,0-4.10837-1.75534,38.038,38.038,0,0,1-4.73616-2.03912,8.78406,8.78406,0,0,1-2.98333-2.64432,7.36218,7.36218,0,0,1-1.2305-4.42226,14.18,14.18,0,0,1,.20843-2.40826,8.85489,8.85489,0,0,1,3.95266-5.99429,14.34819,14.34819,0,0,1,8.29708-2.27517q5.59752,0,8.50552,2.69454a9.27735,9.27735,0,0,1,3.06118,6.67483h-5.0777a5.60606,5.60606,0,0,0-1.675-3.87481,6.6465,6.6465,0,0,0-4.97222-1.675,7.75914,7.75914,0,0,0-5.10281,1.62225,5.76719,5.76719,0,0,0-1.96378,4.71106,4.68539,4.68539,0,0,0,.96934,3.03606,6.9887,6.9887,0,0,0,2.40826,1.911q1.43893.70817,4.00289,1.64988a40.545,40.545,0,0,1,4.81652,2.06673,9.02027,9.02027,0,0,1,3.11392,2.74728,7.70485,7.70485,0,0,1,1.28324,4.60559,14.74615,14.74615,0,0,1-.26117,2.51373A9.7381,9.7381,0,0,1,429.73162,995.36679Z" transform="translate(-59.14041)"/><path d="M476.57849,962.73094l-.68054,3.87482H465.4814l-5.80846,33.0276h-4.76379l5.811-33.0276H450.3563l.6278-3.87482Z" transform="translate(-59.14041)"/><path d="M497.20065,962.73094l-6.49151,36.90242h-4.76379l6.49151-36.90242Z" transform="translate(-59.14041)"/><path d="M521.9588,981.00009l13.55558,18.63327h-5.86119l-12.35271-17.2747-3.03607,17.2747h-4.76379l6.49151-36.90242h4.76379l-3.03606,17.1165,18.47506-17.1165h5.811Z" transform="translate(-59.14041)"/><path d="M587.90854,981.00009l13.55558,18.63327h-5.86119l-12.35271-17.2747-3.03607,17.2747h-4.76379l6.49151-36.90242h4.76379l-3.03607,17.1165,18.47507-17.1165h5.811Z" transform="translate(-59.14041)"/><path d="M628.57779,962.73094l-6.49151,36.90242h-4.76379l6.49151-36.90242Z" transform="translate(-59.14041)"/><path d="M669.98033,962.73094l-.68054,3.87482H658.88323l-5.80846,33.0276H648.311l5.811-33.0276H643.75814l.6278-3.87482Z" transform="translate(-59.14041)"/><path d="M702.53582,991.10023H686.3083l-4.60558,8.53313H676.625l19.94414-36.22188H702.011l7.22479,36.22188h-5.13043Zm-.68054-3.71661-3.45544-18.686-10.10265,18.686Z" transform="translate(-59.14041)"/></svg>